<?xml version="1.0" standalone="no"?>
<!DOCTYPE svg PUBLIC "-//W3C//DTD SVG 20010904//EN"
 "http://www.w3.org/TR/2001/REC-SVG-20010904/DTD/svg10.dtd">
<svg version="1.0" xmlns="http://www.w3.org/2000/svg"
 width="128.000000pt" height="128.000000pt" viewBox="0 0 128.000000 128.000000"
 preserveAspectRatio="xMidYMid meet">
<metadata>
Created by potrace 1.14, written by Peter Selinger 2001-2017
</metadata>
<g transform="translate(0.000000,128.000000) scale(0.100000,-0.100000)"
fill="#000000" stroke="none">
<path d="M71 1262 c-19 -10 -43 -34 -53 -53 -17 -31 -18 -70 -18 -569 0 -499
1 -538 18 -569 10 -19 34 -43 53 -53 31 -17 70 -18 569 -18 499 0 538 1 569
18 19 10 43 34 53 53 17 31 18 70 18 569 0 499 -1 538 -18 569 -10 19 -34 43
-53 53 -31 17 -70 18 -569 18 -499 0 -538 -1 -569 -18z m645 -397 c15 -23 15
-27 0 -50 -26 -40 -86 -26 -86 20 0 53 58 73 86 30z m-526 -95 l0 -110 130 0
129 0 3 108 3 107 38 3 37 3 0 -256 0 -256 -37 3 -38 3 -3 113 -3 113 -127 -3
-127 -3 -3 -112 -3 -113 -34 0 -35 0 0 255 0 255 35 0 35 0 0 -110z m980 75
l0 -35 -80 0 -80 0 0 -220 0 -220 -35 0 -35 0 0 220 0 219 -82 3 -83 3 -3 33
-3 32 200 0 201 0 0 -35z m-460 -295 l0 -180 -35 0 -35 0 0 180 0 180 35 0 35
0 0 -180z"/>
</g>
</svg>
